<?xml version="1.0" encoding="utf-8"?>
<!-- Generator: Adobe Illustrator 23.0.3, SVG Export Plug-In . SVG Version: 6.00 Build 0)  -->
<svg version="1.1" id="Capa_1" xmlns="http://www.w3.org/2000/svg" xmlns:xlink="http://www.w3.org/1999/xlink" x="0px" y="0px"
	 viewBox="0 0 1080 1080" style="enable-background:new 0 0 1080 1080;" xml:space="preserve">
<style type="text/css">
	.st0{fill:#FFFFFF;}
	.st1{fill:#333333;}
</style>
<g>
	<path class="st0" d="M539.83,155c-157.4,0-285,127.6-285,285s127.6,285,285,285s285-127.6,285-285S697.23,155,539.83,155z
		 M754.35,494.8l-82.31,29.23l-47.23-19.5c-40.05-16.54-68.98-52.26-76.83-94.87l0,0L754.35,494.8z M313.04,378.66
		c8.04-39.74,36.33-72.35,74.54-85.92l191.75-68.09v0c-8.04,39.74-36.33,72.35-74.54,85.92L313.04,378.66L313.04,378.66z
		 M328.02,385.76l82.31-29.23l60.96,23.83c40.1,15.67,69.05,51.21,76.29,93.64v0L328.02,385.76z M693.79,587.81l-191.75,68.09v0
		c8.04-39.74,36.33-72.35,74.54-85.92l191.75-68.09v0C760.29,541.63,732,574.25,693.79,587.81z"/>
	<g>
		<path class="st0" d="M346.37,872.82c-4.01-4.24-6.02-10.48-6.02-18.72v-34.48h1.69v34.4c0,7.79,1.82,13.67,5.46,17.62
			c3.64,3.95,8.88,5.93,15.72,5.93c6.83,0,12.07-1.98,15.72-5.93c3.64-3.95,5.46-9.83,5.46-17.62v-34.4h1.69v34.48
			c0,8.25-2.01,14.49-6.02,18.72c-4.01,4.24-9.63,6.35-16.86,6.35C356,879.17,350.38,877.05,346.37,872.82z"/>
		<path class="st0" d="M442.88,861.04h-36.26l-8.3,17.88h-1.95l27.54-59.31h1.69l27.54,59.31h-1.95L442.88,861.04z M442.11,859.43
			l-17.37-37.53l-17.37,37.53H442.11z"/>
		<path class="st0" d="M511.76,819.61v59.31h-1.44l-43.46-56.17v56.17h-1.69v-59.31h1.44l43.46,56.17v-56.17H511.76z"/>
		<path class="st0" d="M563.19,819.61L563.19,819.61v49.99h21.69c5.15,0,9.32,4.17,9.32,9.32l0,0h-42.02v-48.29
			C552.17,824.54,557.1,819.61,563.19,819.61z"/>
		<path class="st0" d="M608.43,872.86c-4.58-4.6-6.86-11.2-6.86-19.78v-22.45c0-6.08,4.93-11.01,11.01-11.01l0,0v33.04
			c0,11.64,5.03,17.45,15.08,17.45c10,0,15-5.82,15-17.45v-22.2c0-5.99,4.86-10.85,10.85-10.85l0,0v33.47
			c0,8.59-2.27,15.18-6.82,19.78c-4.55,4.6-10.92,6.9-19.11,6.9S613.01,877.47,608.43,872.86z"/>
		<path class="st0" d="M719.84,848.59L719.84,848.59l0,23.64c-3.05,2.43-6.61,4.29-10.68,5.59c-4.07,1.3-8.25,1.95-12.54,1.95
			c-6.04,0-11.49-1.31-16.35-3.94c-4.86-2.63-8.67-6.26-11.44-10.89c-2.77-4.63-4.15-9.86-4.15-15.67c0-5.82,1.38-11.04,4.15-15.67
			c2.77-4.63,6.59-8.26,11.48-10.89c4.89-2.63,10.38-3.94,16.48-3.94c4.97,0,9.49,0.82,13.56,2.46c4.07,1.64,7.48,4.04,10.25,7.2
			l-0.32,0.31c-3.45,3.37-8.61,4.01-12.95,1.9c-3.04-1.48-6.38-2.21-10.03-2.21c-4.18,0-7.89,0.88-11.14,2.63
			c-3.25,1.75-5.79,4.21-7.63,7.37c-1.84,3.16-2.75,6.78-2.75,10.84c0,3.95,0.92,7.51,2.75,10.68c1.84,3.16,4.38,5.65,7.63,7.46
			c3.25,1.81,6.93,2.71,11.06,2.71c4.63,0,8.7-1.02,12.2-3.05v-8.05C709.42,853.25,714.09,848.59,719.84,848.59z"/>
		<path class="st0" d="M745.68,875.83c-4.86-2.63-8.67-6.27-11.44-10.93c-2.77-4.66-4.15-9.87-4.15-15.63s1.38-10.97,4.15-15.63
			c2.77-4.66,6.58-8.3,11.44-10.93c4.86-2.63,10.31-3.94,16.35-3.94c6.04,0,11.49,1.31,16.35,3.94c4.86,2.63,8.67,6.26,11.44,10.89
			c2.77,4.63,4.15,9.86,4.15,15.67c0,5.82-1.38,11.04-4.15,15.67c-2.77,4.63-6.58,8.26-11.44,10.89
			c-4.86,2.63-10.31,3.94-16.35,3.94C755.99,879.77,750.54,878.45,745.68,875.83z M772.71,867.44c3.16-1.78,5.65-4.26,7.46-7.46
			c1.81-3.19,2.71-6.76,2.71-10.72c0-3.95-0.9-7.53-2.71-10.72c-1.81-3.19-4.29-5.68-7.46-7.46c-3.16-1.78-6.72-2.67-10.68-2.67
			c-3.95,0-7.51,0.89-10.68,2.67c-3.16,1.78-5.65,4.27-7.46,7.46c-1.81,3.19-2.71,6.76-2.71,10.72c0,3.95,0.9,7.53,2.71,10.72
			c1.81,3.19,4.29,5.68,7.46,7.46c3.16,1.78,6.72,2.67,10.68,2.67C765.99,870.11,769.55,869.22,772.71,867.44z"/>
		<g>
			<g>
				<path class="st0" d="M294.59,878.87h-8.91v-1.61h7.22c15.52,0,28.11-12.59,28.11-28.11v-29.59h1.69v31.2
					C322.7,866.29,310.11,878.87,294.59,878.87z"/>
			</g>
		</g>
	</g>
</g>
</svg>
